<svg xmlns="http://www.w3.org/2000/svg" viewBox="0 0 100 100">
  <circle cx="50" cy="50" r="46" fill="#1d2433" stroke="#1d2433" stroke-width="6"/>
  <path d="M 50.00,4.00 L 58.20,4.88 L 66.08,7.50 L 73.35,11.75 L 79.71,17.47 L 84.94,24.44 L 88.82,32.40 L 91.22,41.03 L 92.02,50.00 L 91.22,58.97 L 88.82,67.60 L 84.94,75.56 L 79.71,82.53 L 73.35,88.25 L 66.08,92.50 L 58.20,95.12 L 50.00,96.00 L 50.00,96.00 L 41.03,95.12 L 32.40,92.50 L 24.44,88.25 L 17.47,82.53 L 11.75,75.56 L 7.50,67.60 L 4.88,58.97 L 4.00,50.00 L 4.88,41.03 L 7.50,32.40 L 11.75,24.44 L 17.47,17.47 L 24.44,11.75 L 32.40,7.50 L 41.03,4.88 L 50.00,4.00 Z" fill="#f4d35e"/>
</svg>
